<svg xmlns="http://www.w3.org/2000/svg" class="iconLeft" viewBox="0 0 468 90"><g id="9c3a69d8-fa45-4ca2-8ce0-61b1d5050075" fill="#fff"><path d="M1.32 12.96L1.32 12.96C1.32 13.15 1.47 13.30 1.65 13.30L1.65 13.30C1.85 13.30 2.00 13.15 2.00 12.96L2.00 6.78L2.00 6.78C2.00 6.58 1.85 6.44 1.65 6.44L1.65 6.44C1.47 6.44 1.32 6.58 1.32 6.78ZM1.32 4.86L1.32 4.86C1.32 5.05 1.47 5.22 1.65 5.22L1.65 5.22C1.85 5.22 2.00 5.05 2.00 4.86L2.00 4.54L2.00 4.54C2.00 4.35 1.85 4.20 1.65 4.20L1.65 4.20C1.47 4.20 1.32 4.35 1.32 4.54ZM10.72 12.96C10.72 13.15 10.88 13.30 11.07 13.30C11.26 13.30 11.41 13.15 11.41 12.96L11.41 9.88L11.41 9.74L11.41 3.84C11.41 3.65 11.26 3.50 11.07 3.50C10.88 3.50 10.72 3.65 10.72 3.84L10.72 7.78C10.12 6.97 9.17 6.44 8.09 6.44C6.24 6.44 4.77 7.98 4.77 9.88C4.77 11.76 6.24 13.30 8.09 13.30C9.17 13.30 10.12 12.78 10.72 11.97ZM8.09 12.61C6.65 12.61 5.46 11.40 5.46 9.88C5.46 8.36 6.65 7.13 8.09 7.13C9.51 7.13 10.67 8.30 10.72 9.77L10.72 10.00C10.67 11.45 9.51 12.61 8.09 12.61ZM17.11 13.30C18.27 13.30 19.29 12.68 19.88 11.75C19.98 11.58 19.92 11.38 19.77 11.27C19.63 11.19 19.42 11.21 19.32 11.38C18.86 12.15 18.02 12.63 17.11 12.63C15.69 12.63 14.52 11.49 14.45 10.00L20.08 10.00C20.26 10.00 20.41 9.87 20.41 9.69L20.41 9.65L20.41 9.63C20.27 7.84 18.87 6.44 17.11 6.44C15.26 6.44 13.78 7.98 13.78 9.88C13.78 11.76 15.26 13.30 17.11 13.30ZM17.11 7.11C18.37 7.11 19.46 8.05 19.68 9.34L14.49 9.34C14.74 8.04 15.82 7.11 17.11 7.11ZM28.21 6.44C28.03 6.44 27.87 6.58 27.87 6.78L27.87 7.78C27.29 6.97 26.35 6.44 25.30 6.44C23.49 6.44 22.05 7.99 22.05 9.87C22.05 11.75 23.49 13.30 25.30 13.30C26.35 13.30 27.29 12.75 27.87 11.94L27.87 12.96C27.87 13.15 28.03 13.30 28.21 13.30C28.39 13.30 28.55 13.15 28.55 12.96L28.55 6.78C28.55 6.58 28.39 6.44 28.21 6.44ZM25.30 12.63C23.90 12.63 22.72 11.41 22.72 9.87C22.72 8.33 23.90 7.10 25.30 7.10C26.71 7.10 27.87 8.33 27.87 9.87C27.87 11.41 26.71 12.63 25.30 12.63ZM36.99 13.30C37.18 13.30 37.34 13.15 37.34 12.96C37.34 12.77 37.18 12.61 36.99 12.61L32.30 12.61L32.30 3.84C32.30 3.65 32.14 3.50 31.95 3.50C31.77 3.50 31.61 3.65 31.61 3.84L31.61 12.96C31.61 13.15 31.77 13.30 31.95 13.30L31.98 13.30ZM39.35 12.96L39.35 12.96C39.35 13.15 39.51 13.30 39.69 13.30L39.69 13.30C39.89 13.30 40.04 13.15 40.04 12.96L40.04 6.78L40.04 6.78C40.04 6.58 39.89 6.44 39.69 6.44L39.69 6.44C39.51 6.44 39.35 6.58 39.35 6.78ZM39.35 4.86L39.35 4.86C39.35 5.05 39.51 5.22 39.69 5.22L39.69 5.22C39.89 5.22 40.04 5.05 40.04 4.86L40.04 4.54L40.04 4.54C40.04 4.35 39.89 4.20 39.69 4.20L39.69 4.20C39.51 4.20 39.35 4.35 39.35 4.54ZM42.84 12.32L42.84 12.32C43.40 12.77 44.27 13.29 45.37 13.30L45.37 13.30C46.05 13.30 46.61 13.10 47.08 12.75L47.08 12.75C47.54 12.40 47.87 11.94 47.87 11.37L47.87 11.37C47.87 10.79 47.54 10.26 47.10 9.97L47.10 9.97C46.62 9.70 46.09 9.51 45.43 9.41L45.40 9.41L45.40 9.41C44.77 9.31 44.31 9.14 44.00 8.93L44.00 8.93C43.74 8.72 43.61 8.53 43.61 8.25L43.61 8.25C43.61 7.97 43.76 7.69 44.04 7.46L44.04 7.46C44.34 7.22 44.79 7.07 45.35 7.07L45.35 7.07C46.02 7.07 46.52 7.42 47.03 7.76L47.03 7.76C47.18 7.85 47.39 7.81 47.49 7.66L47.49 7.66C47.59 7.50 47.54 7.29 47.39 7.18L47.39 7.18C46.86 6.85 46.23 6.44 45.35 6.44L45.35 6.44C44.65 6.44 44.07 6.62 43.67 6.90L43.67 6.90C43.23 7.22 42.92 7.70 42.92 8.25L42.92 8.25C42.92 8.78 43.23 9.23 43.67 9.48L43.67 9.48C44.06 9.76 44.60 9.90 45.22 10.01L45.25 10.02L45.25 10.02C45.92 10.14 46.41 10.30 46.70 10.53L46.70 10.53C47.05 10.82 47.18 11.05 47.19 11.37L47.19 11.37C47.19 11.68 47.01 11.98 46.68 12.21L46.68 12.21C46.37 12.46 45.91 12.63 45.37 12.63L45.37 12.63C44.51 12.63 43.75 12.18 43.27 11.83L43.27 11.83C43.12 11.70 42.91 11.73 42.80 11.87L42.80 11.87C42.69 12.01 42.70 12.19 42.84 12.32ZM52.43 6.44L51.55 6.44L51.55 3.89C51.55 3.72 51.37 3.56 51.18 3.56C51.02 3.56 50.85 3.72 50.85 3.89L50.85 6.44L49.99 6.44C49.66 6.44 49.66 6.61 49.66 6.78C49.66 6.94 49.66 7.11 49.99 7.11L50.85 7.11L50.85 12.11C50.85 12.80 51.37 13.30 52.05 13.30C52.22 13.30 52.40 13.13 52.40 12.96C52.40 12.80 52.22 12.61 52.05 12.61C51.88 12.61 51.55 12.45 51.55 12.11L51.55 7.11L52.43 7.11C52.60 7.11 52.77 6.94 52.77 6.78C52.77 6.61 52.60 6.44 52.43 6.44Z" transform="matrix(6.122448921203613,0,0,6.122448921203613,144.38589477539062,-6.4285688400268555)"/></g><g id="7f82d482-d6f2-4538-a251-263c56b93e6c" fill="#fff" stroke="none" transform="matrix(3.896103858947754,0,0,3.896103858947754,-3.1298694610595703,-22.087013244628906)"><style/><path d="M14.1 24.7L32.9 5.9 35 8 16.2 26.8l-2.1-2.1zm-3.6.7L3.1 18 1 20.1l7.4 7.4c1 1 2.3 1.5 3.5 1.5.6 0 1.2-.1 1.8-.3l-3.2-3.3z"/></g></svg>